<mxfile host="Electron" agent="Mozilla/5.0 (X11; Linux x86_64) AppleWebKit/537.36 (KHTML, like Gecko) draw.io/27.0.9 Chrome/134.0.6998.205 Electron/35.4.0 Safari/537.36" version="27.0.9">
  <diagram name="Page-1" id="CuBg0q-Eh0snBmXlu9yM">
    <mxGraphModel dx="1426" dy="875" grid="1" gridSize="10" guides="1" tooltips="1" connect="1" arrows="1" fold="1" page="1" pageScale="1" pageWidth="850" pageHeight="1100" math="0" shadow="0">
      <root>
        <mxCell id="0" />
        <mxCell id="1" parent="0" />
        <mxCell id="YMwoxmU3_A8SGfwVVyeo-33" value="" style="rounded=0;whiteSpace=wrap;html=1;strokeWidth=2;" vertex="1" parent="1">
          <mxGeometry x="225" y="210" width="385" height="330" as="geometry" />
        </mxCell>
        <mxCell id="YMwoxmU3_A8SGfwVVyeo-34" style="edgeStyle=orthogonalEdgeStyle;rounded=0;orthogonalLoop=1;jettySize=auto;html=1;exitX=1;exitY=0.5;exitDx=0;exitDy=0;entryX=0.5;entryY=0;entryDx=0;entryDy=0;strokeWidth=2;" edge="1" parent="1" source="YMwoxmU3_A8SGfwVVyeo-6" target="YMwoxmU3_A8SGfwVVyeo-28">
          <mxGeometry relative="1" as="geometry" />
        </mxCell>
        <mxCell id="YMwoxmU3_A8SGfwVVyeo-6" value="" style="rounded=0;whiteSpace=wrap;html=1;strokeWidth=2;" vertex="1" parent="1">
          <mxGeometry x="225" y="30" width="380" height="130" as="geometry" />
        </mxCell>
        <mxCell id="YMwoxmU3_A8SGfwVVyeo-43" style="edgeStyle=orthogonalEdgeStyle;rounded=0;orthogonalLoop=1;jettySize=auto;html=1;exitX=0;exitY=0.5;exitDx=0;exitDy=0;exitPerimeter=0;strokeWidth=2;" edge="1" parent="1" source="YMwoxmU3_A8SGfwVVyeo-7" target="YMwoxmU3_A8SGfwVVyeo-41">
          <mxGeometry relative="1" as="geometry" />
        </mxCell>
        <mxCell id="YMwoxmU3_A8SGfwVVyeo-7" value="&lt;b&gt;GitHub&amp;nbsp;&lt;span style=&quot;background-color: transparent; color: light-dark(rgb(0, 0, 0), rgb(255, 255, 255));&quot;&gt;Repository&lt;/span&gt;&lt;/b&gt;" style="verticalLabelPosition=bottom;html=1;verticalAlign=top;align=center;strokeColor=none;fillColor=#00BEF2;shape=mxgraph.azure.github_code;pointerEvents=1;" vertex="1" parent="1">
          <mxGeometry x="293.9" y="66.4" width="50" height="50" as="geometry" />
        </mxCell>
        <mxCell id="YMwoxmU3_A8SGfwVVyeo-8" value="&lt;font style=&quot;color: rgb(255, 255, 255);&quot;&gt;&lt;b&gt;Terraform&lt;/b&gt;&lt;/font&gt;" style="sketch=0;points=[[0,0,0],[0.25,0,0],[0.5,0,0],[0.75,0,0],[1,0,0],[0,1,0],[0.25,1,0],[0.5,1,0],[0.75,1,0],[1,1,0],[0,0.25,0],[0,0.5,0],[0,0.75,0],[1,0.25,0],[1,0.5,0],[1,0.75,0]];outlineConnect=0;fontColor=#232F3E;fillColor=#C925D1;strokeColor=#ffffff;dashed=0;verticalLabelPosition=bottom;verticalAlign=top;align=center;html=1;fontSize=12;fontStyle=0;aspect=fixed;shape=mxgraph.aws4.resourceIcon;resIcon=mxgraph.aws4.application_composer;" vertex="1" parent="1">
          <mxGeometry x="500" y="70" width="46.4" height="46.4" as="geometry" />
        </mxCell>
        <mxCell id="YMwoxmU3_A8SGfwVVyeo-9" value="&lt;b&gt;Version Controlled IAC&lt;/b&gt;" style="text;strokeColor=none;align=center;fillColor=none;html=1;verticalAlign=middle;whiteSpace=wrap;rounded=0;" vertex="1" parent="1">
          <mxGeometry x="346.47999999999996" y="36.4" width="138.05" height="30" as="geometry" />
        </mxCell>
        <mxCell id="YMwoxmU3_A8SGfwVVyeo-24" value="&lt;b&gt;Container (API)&lt;/b&gt;" style="image;sketch=0;aspect=fixed;html=1;points=[];align=center;fontSize=12;image=img/lib/mscae/Docker.svg;" vertex="1" parent="1">
          <mxGeometry x="276.17999999999995" y="260" width="86.59" height="71" as="geometry" />
        </mxCell>
        <mxCell id="YMwoxmU3_A8SGfwVVyeo-38" style="edgeStyle=orthogonalEdgeStyle;rounded=0;orthogonalLoop=1;jettySize=auto;html=1;exitX=0;exitY=0.5;exitDx=0;exitDy=0;entryX=1;entryY=0.5;entryDx=0;entryDy=0;strokeWidth=2;" edge="1" parent="1" source="YMwoxmU3_A8SGfwVVyeo-28" target="YMwoxmU3_A8SGfwVVyeo-33">
          <mxGeometry relative="1" as="geometry" />
        </mxCell>
        <mxCell id="YMwoxmU3_A8SGfwVVyeo-28" value="" style="shape=image;aspect=fixed;image=data:image/png,iVBORw0KGgoAAAANSUhEUgAAAMgAAADICAYAAACtWK6eAAAAAXNSR0IArs4c6QAAIABJREFUeF7tXQl0VFWa/t9Se1WK7IQkhCTshCCLyI6KCtK24xw3REenZcYGHcdxGuyjPXTbjjqOYyvHrbVnnDntgi042jNOt4qCqCgBZA8JEJKQjZB9qb3qvXfn/DfQjQqkXtWrV9u957wD5+Te/7/3u/eru/33/zlgiSHAELggAhzDZngE6u6/3yS2tFik6mqD69Qpgz0nxxzgOJPS0yNIimIyT5lSCQAjYXAwM9TZaZb7+gQhO7ucM5szOZ4vBEIEJRDIAEURlGCQJ263SAgJG3uO4whnt0u80agAz8u8yTQIHCcTRWmT/f4+0tNTL2Rny4acHD9kZPQBwGnfkSMHDTwf5LOzZUJIQOru9jtGjQqJFRUhqbjYN+6FFwLDt5zlCLuT0gGqU/fcY/V3dY1z7d2bw0lSPjGZxii9vU4iSdmcxVJAfD47CQZtvNmcDxyXqfj9ZhIMComKDWc0yrzZ7AdC+hS/v4MzGj2cxeImPl87J4o9YnZ2P/F4mojJ1OGYObPbnJtbN+o3v/EmanviUa+0JQjOClx//3xfVVWF4vXOAkW5NNTZmckRYiKE4KAXgeOMQAgPKn7t49GJEenkOAIcpwAhQQCQcEYCjgsY8vL6CM/vEazWbxxz5x4OOZ1fp/Nsk9IEabn5Zovrm2/yJL8/R/F4coTMzJmhrq4Jgt0+XxoYGE0CAUNEgyuNCnFmc4jPyGgGt3uHmJt7PNjXt9dgs3WLZnO3Y9aszuLNm32pDEfKEaT+zjvHez/7bLoSCl0q9faWcTw/mnBcIYRCeUSS+FTuTD3axomiAgZDJxDSBorSLGRlNQgGwx7rvHn7y99557geddBTR0oQpP7GG2e5du68GbzelVJ//ygAONuulGifngMiAl3kTBkiZma2gcXytn3+/E1jN2/eG4GshCuSdAOoYcmS/MGamnGy2z1ZEMUrSCCwQPb58KQo6dqScKNBqwpxHOEtllbeZPqKSNI2zmyuFSor66Zu3dqhlQq95CTNoDo4ZswyeWDgBuJ2zwBCioks5+LxqV5AMT0RIoCbf0Ho4jmumbfb94lO5+8rTp78OEJpuhdLSIIQAG4ngNlWUjIS/P6VssezTnG7nbqjwxTGBAHebu8XbLZnjBz3Vt/p0x1zAfwcwNmlWkx0Rio04QhydMKESl9b20IlFFrKA1wuBwKOSBvHyiU2ApzJ5AKAz8Bg2GIsLPxy6rFjhxKtxolCEG5fQcFMzut9SHG7LwNFyQdCjDiTJBpgrD7aIkBnDo4LAs93CHZ7FW+1Pl3Z3r4PEmRGiesArMrKyrCZzRXBwcG1xO+/HiSJ7Sm0HX/JJ00U8fb/f7js7F8FXK7qOb29g/FsRFwI8nVRkcUWDC6XBgbuIJK0BGSZLaPiOQoSUDcnCINEFLcZnM43PUbjH+e1tsblQlJ3ghwaNWqi1Nf3ouL3zwFCrOfcWSRgN7EqxRkBXH55eYtlpyUz875JbW26X0TqQhDcS+zNzCzmZfku4vOtI6EQmzHiPPKSTT1nMLg4i+Vpgyj+tqK3t1WvUy9dCLIvP/960tf3CAkGZwEA22ck2+hMkPoSAJk3GveImZlPTuvo+ECPaulCkENFRc3B1tYitpzSo0tTXgcxFhe3Vra0jNajpfoQpLi4NdjSUqhHg5iO1EfAWFzcVtnSgj+4MU+MIDGHmCnQGgFGEK0RZfJSCgFGkJTqTtYYrRFgBNEaUSZPdwQMhYVgmz0brHPmgPWSS4ATRXBt3w7d//EfILW3R1UfRpCo4GOF9UKAMxqBt9mGvowMsC9YAI7588E2bx6YysqA47//gDPY2goNK1aA5+uvAUhkBryMIHr1MNOjCgHOagVTaSmYxo0D09ixYMZ/y8rAWFYGptGj6SwRTgp1d0P9X/zFEEkiSIwgEYDGisQAAY4D85Qp4FiyhM4O1unTQcjIAN5iAd5sBhAE4Dj1B6GEEOj57W+h+cc/BhJEpyrqEiOIOrxY7mgQ4Dg66IXMTPoZR40C2/z5YJ01i+4hRGds3qm5d+2ChptuglBrq+raM4KohowVUIOAkJ0NlilTwFJZCebx48FYWgrGoiL64d8imRXU6Me8wbY2OHHtteA7fFhtUWAEUQ0ZK3BRBIxGcCxeDM5rrwXHFVeAedKkoQ30mU8PQny3frjMqlu2DFxbtqjuPEYQ1ZCxAniiJObmgmHkSBALCsA8dixYZ8wAy7RpYJk8OewNtJ5Itj78MHQ89ZRqlYwgqiFLzwLGsWPBNnMmWGfOBPPEiUPkyMsDQ14ecGazLkulaJDve+89aLjxRtUiGEFUQ5bCBfCkSBTpZygoAPuVV4LzmmvAvmQJGEaMSOqGB06ehOrSUtVtYARRDVnqFMALN7phxo3z6NFgnjCBfpapUylBznf5lqytJ4oCB7KyQBkYUNUERhBVcCV3Zs5konsF22WX0eNVc3k5CE7n0LGrw5GQewctET+6YAF4vvpKlUhGEFVwJUFmngfeah36HA56tGpfvHjILGPOnJQnwcV6qPHOO6H3jTdUdSIjiCq4EjOzoagITOXl1CQDTTNwZsBlE5pnIEnicbSaiEid+sUvoP2xx1RVjRFEFVyJkRmPVnE2cCxaBPbLLwdDbu6QSYbVCriMYoQ4fz91bNgArQ8+qKoTGUFUwaVfZjw6FUaMABG/vDx6x4DmGLh/wNkilTbQeqHa+8470LhihSp1jCCq4IpdZvzlN+EJ0qRJ9PYZ9w64dDIWF9MTJd5kip3yNJHMCAIAh5LFaQPPg3nyZMi46ipwXHkltWDFZRInCEOWq+d535Am4zhmzWQESUCCCFlZ9LZZHDmSzgg2NMmorKSfmJPD9gsxo8P3BTOCJABBkBD47NOCX2UlmMaMGTLJyM+newo2M+jIiO+o6nzlFWhZs0ZVBdgeRBVcZzLjwx1cBgkCfQKKG+cMtF69/HK6hwj3tVskqlmZyBE4/cwz0LZunSoBjCDhwIW2SaNGUXMM3DTjU1D6vmHiRLqZxr0DS9ohoPh8EGxpoR+RZbpP02LmbVqzBrpfeUVVRRlBzgcXz4NxzBiwz51L7xvO7hfEMy/h6BNQljRDQAmFwF9dDZ7du8GzZw992CT39YHU1wcZV18NpW+9pclere6662DwD39QVe+0JggerVKTDIsFxPx8sM+fT0+UcMmEz0FZ0g4BfLREfD7A2UHxeMDf2Aju7dupMwV3VRUog+ePXTPqySeh4OGHNanI4fHjIVhXp0pWWhGEdzrpppl6ykDvGOXlQ94yxo2jSygtpnFV6Kd4ZvQoEqirg0B9PQQaGyFw/Dj9v7+uDuSenrBc8UysqqI/WNEm2eOBA2iyL0mqRKU0QXCGwNMkaqy3eDHdLwh2+5BvJTTLwDsHljRDQBoYAM/OneD+4gtwf/UVBJuaAAcm8XrpzKHWNxVekE5tagLOYIi6ju49e+DY7Nmq5aQcQZpWrz5hLC8vt8+bR8khWDGwFEtaIYD7Bbm/f+jr6wNfbS24d+wA75494K+pARIKaaUK8tetg6Knn9ZEXterr0Lz6tWqZaUcQQghuwHgUtVIsALnRQAJEWpuBu+RI+A/cgQCJ07QmSHY3AzouRD3FbFIvN0OE778kt4paZEa774bev/rv1SLYgRRDVlqF8CXd3i86tq6FQa3bKFLJbm3F4gk0Q8URRcAHEuXQtnvfkeNNaNNuPSru+Ya8O7G3051iRFEHV4pk1seHASpuxtCp0/Tz3foEHi/+Qa8Bw5AqK0tru1ErylFzz4LuWvWaHJw4t2/H+r/8i/pzKc2MYKoRSxJ80uDg+A/ehR8e/eC9+BBCDQ0gNTZCaH2dkoUvWaGcODDh1/jt28HY2H0gcLweLn37behadUqIH5/OOq/lYcRRDVkiVsABwMOdLx9xs0yzgaDn3wCgx99BL79+yPyTRuP1o7+9a8hN4IN9fnqili0rl0LnRs2RNQURpCIYEuMQrgnCOEs0NY2tGluagJfdTX4amrAf/gwKF5vYlRURS0yli2D8v/9X+A1ONpFtYrfD7UzZoC/tlZFLf6clREkItjiUwg30Lgk8uBeYdcu8O7dS/cPaJKBG2m8oU7mZCgpgfJNm+jLSa3S4KefQt3SpREvIRlBtOoJjeRQk4xQiK6X8ddP6u8fMsf44gtwffklBE+c0EhTgokRRRj1+OMwcu1azS5w8QelbvlycH38ccSNZQSJGDrtCuJtMy6RcOOM9wzf+urrVd9Aa1cz/SRlr1oFxc8+S8MjaJXw9Kp25syo8GME0ao3VMjBXza0WHV/+SW4d+4E34ED9GYal0hIFrX2QipUJ2TWzJUroeTVV6kZkFYJN+ct//AP0PXii1GJZASJCr4LF0YSyC4XtVLFOwe8dcZLN7ysQlJcyHo1RtVJTLEcB84f/hBGv/QSdYGqZfIfPw71N95IzeijSYwg0aB3TlncO+B9At41oE0SWqyi5Sp9+INGe3jXwNKfEOAsFshZvRoK1q2jXlu0Th3PPQetDz0U9WzMCBJFz+Am2vXFF/SuATfRSA66wUaTDPwijKwaRZWSoii+2y9+/nnIvOUWzY5zz2044n+4rAxCLS1R48EIMgyESjBIZwb6dXSA/8QJ8OzaRfcNeOcAshx1J6SFAJ6nXl0cCxfCyPXrwTJhQkyajXuPNgyW82//pol8RpDzwIgkwFto38GD4D92jAZ/PGuzFCvrVU16MwGFoG9g6tRi2TL6JgefL/NGY8xqikfhJ667TrM9XloShJpknP3QerW9HVyffAIDH34IeLGkNoZEzHo7mQSjpxd0dsdxYKmooITIWLqUXvrp9SYHD0VOrloF/Zs3a4Zc2hCEniShSUZLC50RfGi4hzPEkSMQOnWK7RfUDCmeBzE7e8g16hn3qBh0x1xRAdbKSk3vMtRUq2fjRhoPXXG71RS7aN6UJYjs81ECeKqqqBk3LpvQHEPq6QEZowyxvYOqQYReIDE+IXp5sU6fTskhZmVRoiRCiAV/QwMcW7gQJPyx0zClHEHa1q8/Mvjpp5PRhQwjgcqRIorUSTZ6lscXfbg8Qi8v1CHexIkqhemXnT6IWrYMvFVVmitNOYIkjfNqzbtSvUB0aoGO8DDYDg3Ag15exo8HE37l5TE5glVfy4uXwKN2DIrT8atfxcScnxFE6x5LcHmmiROp/y/8MF4hjU+Inl7sduo9JNmC7/Ru3gxNd9+t6b7j3C5kBEnwAa26ehw35AwvI4Nulg2FhfSYlXqJXLAADJmZqkUmYgG8DBz87DOo/+EPgQQCMasiI0jMoNVPML7hxhMk6i/4zPII/Qif9Syfag7x8Jh+8MMPofm++yB48mRMgWYEiSm8sRfuWLIE0D0nbqJpfEJcJqV48B20hD5+9dXUsiHWiREk1gjHSD6+vhu1fj1k33VX2oRbQLMfdEfUcNttul3mMoLEaADHUqyhuBjGvP46OBYsSBtyIJ7oHfHUo4+CdPp0LOH9lmxGEN2g1kYRmomP37qVbrrTIZ19gtzywAOqY3togQ8jiBYo6iWD5yHnnnvo09R0CNqDj87wkdnpf/kX6rooHs8HGEH0Gtwa6MGj2/L334eMK6/UQFpii0BPLR3PPAM9b7yhybuOSFvLCBIpcnEoZywvhyk1NTE1F49Ds/6k8myQHc/evdB8//3gP3gwntWhuhlB4t4F4Vcg6447oPSNN8IvkEQ50b0RLqP63n0XBj74ICZmI5HAwQgSCWpxKlP41FMw8qc/jZP22KjFh2jdr70GPW+9RZdSWpqqa1FjRhAtUNRJxqjHHoOC9et10qatGrp88vuphxfcX+BThL5Nm+iskcguUhlBtB0HMZWWuWIFlL39dkx1xEI4Pk7rf/dd+iaHOsc7dgykrq64nEqpbR8jiFrE4pjfWFICk2tqdHvCqlVT0eK2ccWKiP3jalWPSOQwgkSCWpzKoEl66dtvg/MHP0gqs/T+Dz6A+uuvjxNq0allBIkOP31LcxxkrVwJGD9DcDj01R2FNkaQ8MDjwssWXa6Uf1EoCFD27ruQecMN0QF1kdJ45Io32NapUwHN5qNNvZs2QeOtt0YrJi7l2QwSF9ijU4pLrZLXXoMR118PvNkckTC0jMVYI+jRBQPwoKtUGnxn/37qXR49RE6urdXkLXrnK69Ay5o1EdUz3oUYQeLdAxHqR/edGKZs5MMPh+UVHcM548DHoDvo5QXJQL1FdnXRf0kw+O2aiCJMd7kiJuC5wtqffBJO/exnEbY0vsUYQeKLf9TahexsKHz8cXBed93QvgQfS50JwkPDOW/fPhR8Z/t2kPv6wtZnrqyEKRqZejStXg3dr74atu5EysgIkki9EUVd0JDROGbMkJWvLFMHedG8uBv5yCNQ+MQTUdToz0Xrrr12yBo3CRMjSBJ2WsyrLAgwae9esE6bFrUqvDk/tmgRvTlPxsQIkoy9FuM6W2bOhPGffgriiBFRa0Ln3xgnMNjQELWseAhgBIkH6omsk+ch/6c/hcJf/pI6gIg2DXzyCTTedhvIPT3RiopLeUaQuMCeuErF/Hwof+89sM2dG/VtPRooduER7/33J60bWEaQxB2rcakZBtQsff11TUIx49EykiNZT7CwAxhB4jIME1OpWFAAE778Eszl5ZpUUHa74diCBUm7QWcE0WQYpIgQjoMxGzdC1q23Rr20OouI78gRqKmoSGqA2AyS1N2nUeV5HrLuugtGP/ccCE6nRkIBkvmC8CwIjCCaDYfkFYTHuuWbN4OptFSzRoQ6O6F67FhQXC7NZMZDECNIPFBPFJ0cB6Zx42DCjh1gyM3VrFZ4etX5wgvQ+sADmsmMlyBGkHghnwB67ZdfTuOVo1m7linU3Q0NN98M7u3btRQbF1mMIHGBPf5K8X170dNP01iDWgfN6f+//4PG22/XLBRzPNFiBIkn+nHQjYTIX7sW8mO0/EF3ofU33QQD778fh9Zpr5IRRHtME1KiOHIkZN58M2TdfjvYZs3S5CLwfA0d2LKFvj+PZdQnPQFmBNET7TjowhDNuffeC9k/+hE9peKNxpjVAp/q1kydSuPQp0piBEmVnhQEeoeBscvxtaF5yhRwLlsGzuXLw3pxGC0MaFaCXtjbH300KfxdhdteRpBwkUq0fBwHhoICSoSzsQnRb5axqIiGdsYAnnomdDiNJ1fBxkY91cZcFyNIzCHWTgHvdNLQB+gXy754MSUCjUd45tP6NEpNzTFmoOvTT9UUSYq8jCAJ1k0YQcqQlweGkSNBHDWKRq3FeOb4us88YUKC1RZA8fuh/fHH4bRGz3MTrYGMIPHuEUGgyyTrJZeA7dJLwTR2LBjy80HMywMxNzemm+pom05kGXrefBNa/u7vEs4re7RtO1ueEUQrJIeTI4o04CZ+aN7huOIKyLj6arAvWpR0vnbPNtV76BDULVsGUnv7cK1P2r8zgsSi6ziOniThHgE9E5rKysA0YQJYJk2is4UhJycWWnWV6d2/HxpWroTA0aO66tVbGSOIRojjfYNt9mz6VBX/xRMleuw6YgTg3+hmOkWSZ98+aLr77qR+CBVuVzCChIvUOfk4o5HuD2yXXQZo8OdYuJDuIVI9oZVuoL4eGleuBO+ePaneXNo+RhCV3YweB3P+5m+oX1xcPsXzaFVl1aPKjhvygY8/htZ//EcaACddEiOIip7OWL4cRr/88p/vH1SUTfasPa+/Dq3r1oHU2ZnsTVFVf0aQMOGyzplDw5+ZxowJs0TyZ8MlFbov7frNb+hdB4RCyd8olS1gBAkDMPQVNW7LFrBWVoaRO3WyDH72GZx+8smUvCEPt5cYQcJAqui55yDvgQfSZr8h+3xw6tFHoWvDhoSJVx5GN8UkCyPIMLAaioth/CefJKSZh9YjItTVBa6tW6Hj2WdpDBEMo5DuiRFkmBGQce21UPrmm9SMPFWT4vNB79tvU7MRT1UVEJ8vVZuqul2MIMNAlvO3fwujX3pJE0fOqnsnRgVw840xRNDzYf9778Gp9etpKDaWvo8AI8gwoyL3/vth9PPPp8TYIZIEgbo6QBsq944dMPDHPw6932BLqQv2LyNIODPIyy9TI8NkTGiO7tm9m4Zgwy/U0kJnC8XrTcbm6F5nRpBhIMfYf2Nefx3EzEzdOycahf6GBjh5553UJOR7ATqjEZxmZRlBhulwY1kZjPvoIzCPG5dUQwPDOh8ZPz6p6pyIlWUEGa5XeJ56H8y7777hcibU34NtbXC4qCih6pSMlWEECaPX8OnrpF27qEOEWCYlGKSXkVqEPgs0N0N1SUksq5sWshlBwuzmjB/8AEr+/d/BWFAQZonhs+EG2n/iBPhra8FXXU3j+KGlsBam8579++HojBnDV4LluCgCjCDhDhCOg8xbb6UkEez2cEt9Kx8es2LU18Ft22BwyxbwVlWB7PEASBLg39BRQ9m774J93ryI5J9byLVjBxxfuDBqOekugBFE5QiwXnYZFPzsZ/TVIDpW+O57EPRNK/f3g9TVBaGODgi2tID34EHwHzgA+Ksud3dfUCO+VR/74YeahEDreestOHnHHSpbx7J/FwFGkAjGBD6htUybRn3cWioqwDBqFJ0JQs3N9BKO3jV0dECovR3k3t6wNVhnz4YJ27cDb7GEXeZCGU898QS0/9M/RS0n3QUwgiTQCMi5914oeeklTWrUcPvt0Ldxoyay0lkII0gC9f64bdsg44orNKlR9aRJKe9xRBOghhHCCKIHymHoME2cCJMPHADeZAoj98WzoJf1gxhSTZKilpXuAhhBEmEEcBwUv/wy5K1erUlt8JSsbskSTWSluxBGkAQYAebJk+mTXmNhoSa1afv5z+H0P/+zJrLSXQgjSLxHgCBAwS9+AQUPP6yJxbASCMCJ5cvBtW1bvFuWEvoZQeLcjTh74N2HafRoTWriq6mB+htuoO8+WIoeAUaQ6DGMWALep5S99x44r7oqYhnnFsSXgn2bNsHJH/2IPZvVBFHmWVEjGCMQIwjUSjh3zRrNvKXgLX7zffdB9yuvRFAhVuR8CLAZJB7jguMgZ/VqKHrqKU1DpdEgmhUVEGpri0erUlInI4je3cpxkH333VD4xBM0UI6WqWPDBmh98EEtRaa9LEYQPYeAKMLIhx6i5NA6SW43HC4sBGVwUGvRaS2PEUSn7senu/k/+Qlk//Vfax5RCvceHc89B21r1+rUmvRRwwgS477GWCKZK1bAyHXrwDxpEnCCoLlGfD3YcMst4N21S3PZ6S6QESRGI4C32cBQUgLFzzwDGUuXxjTCVPd//ic0/fjHzPYqBn3JCKIhqBjCGWcJ+9y5NEBnxjXXaPK242JVxDcnxxYvZheDGvbjuaIYQaIEFh9L2ebPB8fixZQYYkEBiNnZuoRvxqhPDbfdBv2bN0fZClb8QggwgoQxNjizmd5X4Cfm5IB15kywL1wItjlzwBQnzyG4MUeH002rVgEJBMJoBcsSCQKMIOdBjbNawTx2LJgnTqRLJmNpKZhKS8E4Zgy1uI3FRltt5/nr66Hh5pvBt3+/2qIsvwoEGEHOgGWZMQMcixYBhjuwTJ1Kj2LxBAo/4HnNzEFU9M1Fs9bfeCP0v/8+czytFaAXkJM+BOF5EEaMoEsk/DDWoOWSS2goZ+v06SA4HDGGWhvx6HS6/V//FU4/9pg2ApmUiyKQ0gTBWOaWyko6I6AXEvSMaCgooF5IBKczpkevsRh36Dur+7XXoHXtWlDc7lioYDK/g0DKEaRp1ap607RpZeiV3VxamjIdjqbsrs8/hxPXXQcEnc2xpAsCKUcQQshuALhUF/R0UqKEQtQT48m77qLuSVnSDwFGEP2wjkgTfQT1zjvQ+pOfsDBpESEYXSFGkOjwi2lpfF8+8MEHdOZgEaFiCvUFhTOCxAf3YbWGOjtpOOaOp59mR7nDohW7DIwgscM2YsmB1lY6a3h27GDh0yJGUZuCjCDa4KiJFNnlgr7334eWv/97UAYGNJHJhESHACNIdPhpUhqNDjEsc+fLL8PgH/4ACjvG1QRXLYQwgmiBYhQypIEBaHvkEeqJHeOKsJRYCDCCxKE/8HQKI031f/ABdD3/PEidnXGoBVMZDgKMIOGgpFEeqa+PXvj1//734KmqgmBTEzuh0gjbWIlhBIkVsmfk4rsNdAfa9eKL0LtxIyguV4w1MvFaIsAIohGauNGmYdfa2mjotcCJE+Ddtw88u3ZBoKEBQFE00sTE6IkAI0gUaAeamsC7dy949uwB36FDIHV0gNTdTT92EhUFsAlUlBHkIp2BdlAYpUkJBumFHUauxRlh4KOPwP3558zFZwIN5FhVhRHkO8gqPh8EGhshePIk/TdQXw/+2lrwHz1KQzqDLMeqL5jcBEQg7QmCR66+6mpwV1WB+4svKBnwFhtvtWV048kIkYDDVr8qpQVB8CQJ9wQ46PElHm6a3Tt3UkLgHoKdLOk34JJNU0oShCjKpXj55q+rA//x4/RSDpdMwYYGumySe3uTrZ9YfeOEQMoRpPWhh2oGt22bFGxuBsXvpz6jmN+oOI2uFFCbcgQ5VFzcGmxp0SZcbAp0MGtCdAgwgkSHHyud4ggwgqR4B7PmRYcAI0h0+LHSKY4AI0iKdzBrXnQIMIJEhx8rneIIMIKkeAez5kWHACNIdPix0imOQMoR5EBe3mq5t/fnIEn5BIBP8f5jzYsRAhyAQkSxQ8zK+uUlnZ2vxkjNt8RyeihBUhzKypoteb33klDoJpBlix56mY4UQkAQfLzBsFmw2V6u7OnZg2TRo3W6EORsQ74uKrLYfL55ksfzAvH7JwKArvr1AJTp0BwBwpnNtaLNdr/HYtk5r7XVp7mGiwiMywA9OmGCIzgwsCbY3X0nyPJYIMSkZ6OZriRAgOMCIAgnhJyc1y1O568nHjsWF8cBcSHI2e45mJ9fSvz+a+RA4A4SCs0FWRaSoOtYFWOJgCDInMHKWRMzAAADZElEQVSwEyyWN0Wjccu0jo7GWKobTnZcCXK2cpsAjOV5eVfwweCzcn//5OEqzf6emggII0YcAaPxwbrOzs9vAQgmQisTgiDnAnF47NhrpFOnblSCwcsAYAKRJHMiAMXqoD0CnCj6AeAYZzRWGUpK/ntqbe0n2muJTmLCEQSbQy6/XNxbU1NikuVKKRhcTkKhFYrfb4+uqax0oiDAm81uzmD4HWc0/lEShEMzJ09u4rZvlxKlfufWIyEJcj6gqktL75QGBtbIfX0VZGhTL7JTsEQcUt+rEwEAieO4AJ+ZeVh0On89tbHxjaSoeTIOsNolS8YHq6sXygMDlxKOqwRZHk+CwaxkbEuyDJII6kk4o7GXE4RjhJDDgtO521RRsWPS1q3HI5AV1yJJM4N8FyVchu2vr88jbneOOSdnRrC7+yoIha6R3e4cRpa4jCnC2+3dnMHwsZCVtTXU27uPs9u7p5eXdybq8ikclJKWIBdqXP1f/dUs32efXSmHQkulzs4ywnF2juOsRFEsQEjKtTecTtY0D8cRjud9hBAvEOIW8/IaeIPhY+uiRVvHbty4V1NdCSAspQdM08qVmd7duycGfb5xZGCgBERxnOzxFHIWy2Ti8+WQUAj3MSxdBAHOYJA4i6Wb+Hw1gs3WpkhSncHpPClaLCess2cfLdm4sS+VAUxpgny341rmzrV019aaLA6HNSDLDmN5+VypqWmy7PfP5AiZIfX2OokspxUm3zqxEQQiZmcPEIB9gtm8VywpqQnW1+80CYLL53J5cyZNChTv3KmrqUe8yZe2g+F8wNffc49T6OqaObB/fzH4/aW81VoR6urKIT6fnRNFB5FlI368KNoAwEJkWSSynLDWyZwgKCAIeHzqI5Lk4QQhiB+RZRdntbrF7OwuzuutVszmk7bp01syi4q+yX7hhcF4D8pE0s8IEkZvIHGgqyvfdfiwLdTTYzU5nTlEUZxKX59J8XiMQn5+GS+KmSQYtMsul5F4vTzncBTwBoOdCEIupyg8CYWshBAeJIkjPp9AVBhqcgCEs1hkEEXCc5wMBoOP8LzCyXKXEgq5icvVzjkcimC1BonR6AZJ6gt1dDSINltQzMz0E54flHt6urj8fJ9j2jQ3X1zcVbphA4stF0bfM4KEARLLkr4I/D8m1X3IJGae1QAAAABJRU5ErkJggg==;" vertex="1" parent="1">
          <mxGeometry x="700" y="335" width="80" height="80" as="geometry" />
        </mxCell>
        <mxCell id="YMwoxmU3_A8SGfwVVyeo-30" value="&lt;b&gt;Flyway&lt;/b&gt;" style="text;strokeColor=none;align=center;fillColor=none;html=1;verticalAlign=middle;whiteSpace=wrap;rounded=0;" vertex="1" parent="1">
          <mxGeometry x="710" y="410" width="60" height="30" as="geometry" />
        </mxCell>
        <mxCell id="YMwoxmU3_A8SGfwVVyeo-31" value="&lt;b&gt;Application Database&lt;/b&gt;" style="image;aspect=fixed;html=1;points=[];align=center;fontSize=12;image=img/lib/azure2/databases/Azure_Database_PostgreSQL_Server.svg;" vertex="1" parent="1">
          <mxGeometry x="500.57" y="260" width="53.25" height="71" as="geometry" />
        </mxCell>
        <mxCell id="YMwoxmU3_A8SGfwVVyeo-32" value="&lt;font style=&quot;color: light-dark(rgb(0, 0, 0), rgb(254, 254, 254));&quot;&gt;&lt;b&gt;REST API Gateway&lt;/b&gt;&lt;/font&gt;" style="sketch=0;points=[[0,0,0],[0.25,0,0],[0.5,0,0],[0.75,0,0],[1,0,0],[0,1,0],[0.25,1,0],[0.5,1,0],[0.75,1,0],[1,1,0],[0,0.25,0],[0,0.5,0],[0,0.75,0],[1,0.25,0],[1,0.5,0],[1,0.75,0]];outlineConnect=0;fontColor=#232F3E;fillColor=#E7157B;strokeColor=#ffffff;dashed=0;verticalLabelPosition=bottom;verticalAlign=top;align=center;html=1;fontSize=12;fontStyle=0;aspect=fixed;shape=mxgraph.aws4.resourceIcon;resIcon=mxgraph.aws4.api_gateway;" vertex="1" parent="1">
          <mxGeometry x="386" y="410" width="78" height="78" as="geometry" />
        </mxCell>
        <mxCell id="YMwoxmU3_A8SGfwVVyeo-36" value="&lt;b&gt;Application Infrastructure&lt;/b&gt;" style="text;strokeColor=none;align=center;fillColor=none;html=1;verticalAlign=middle;whiteSpace=wrap;rounded=0;" vertex="1" parent="1">
          <mxGeometry x="340.5" y="220" width="154" height="30" as="geometry" />
        </mxCell>
        <mxCell id="YMwoxmU3_A8SGfwVVyeo-44" style="edgeStyle=orthogonalEdgeStyle;rounded=0;orthogonalLoop=1;jettySize=auto;html=1;strokeWidth=2;" edge="1" parent="1" source="YMwoxmU3_A8SGfwVVyeo-41" target="YMwoxmU3_A8SGfwVVyeo-24">
          <mxGeometry relative="1" as="geometry" />
        </mxCell>
        <mxCell id="YMwoxmU3_A8SGfwVVyeo-41" value="API Source Code" style="sketch=0;pointerEvents=1;shadow=0;dashed=0;html=1;strokeColor=none;labelPosition=center;verticalLabelPosition=bottom;verticalAlign=top;outlineConnect=0;align=center;shape=mxgraph.office.concepts.folder;fillColor=#2072B8;" vertex="1" parent="1">
          <mxGeometry x="70" y="273" width="50" height="45" as="geometry" />
        </mxCell>
      </root>
    </mxGraphModel>
  </diagram>
</mxfile>
